<?xml version="1.0" encoding="iso-8859-1"?>
<!-- Generator: Adobe Illustrator 18.0.0, SVG Export Plug-In . SVG Version: 6.00 Build 0)  -->
<!DOCTYPE svg PUBLIC "-//W3C//DTD SVG 1.1//EN" "http://www.w3.org/Graphics/SVG/1.1/DTD/svg11.dtd">
<svg version="1.1" id="Capa_1" xmlns="http://www.w3.org/2000/svg" xmlns:xlink="http://www.w3.org/1999/xlink" x="0px" y="0px"
	 viewBox="0 0 380.105 380.105" style="enable-background:new 0 0 380.105 380.105;" xml:space="preserve">
<g>
	<path style="fill:#211915;" d="M377.614,147.176c-3.647-4.147-9.968-4.553-14.113-0.904c-16.2,14.249-37.006,22.096-58.582,22.096
		H75.187c-21.576,0-42.382-7.847-58.582-22.096c-4.146-3.647-10.466-3.242-14.113,0.904c-3.647,4.147-3.242,10.466,0.904,14.113
		c18.783,16.52,42.617,26.004,67.523,26.981c-0.77,1.417-1.207,3.041-1.207,4.767c0,2.333,0.806,4.475,2.146,6.176
		c-1.379,3.215-2.146,6.753-2.146,10.468c0,14.691,11.953,26.645,26.645,26.645s26.644-11.953,26.644-26.645
		c0-3.714-0.766-7.252-2.145-10.468c1.34-1.701,2.145-3.843,2.145-6.176c0-1.688-0.422-3.275-1.161-4.67h145.429
		c-0.739,1.395-1.161,2.982-1.161,4.67c0,2.333,0.806,4.475,2.146,6.176c-1.379,3.215-2.146,6.753-2.146,10.468
		c0,14.691,11.952,26.645,26.644,26.645s26.645-11.953,26.645-26.645c0-3.714-0.766-7.252-2.146-10.468
		c1.34-1.701,2.146-3.843,2.146-6.176c0-2.015-0.601-3.887-1.626-5.457c21.762-2.588,42.33-11.68,58.942-26.291
		C380.856,157.642,381.262,151.324,377.614,147.176z M96.355,216.326c-3.664,0-6.645-2.98-6.645-6.645
		c0-3.663,2.98-6.644,6.645-6.644c3.663,0,6.644,2.98,6.644,6.644C102.999,213.345,100.019,216.326,96.355,216.326z M292.75,216.326
		c-3.663,0-6.644-2.98-6.644-6.645c0-3.663,2.98-6.644,6.644-6.644c3.664,0,6.645,2.98,6.645,6.644
		C299.395,213.345,296.414,216.326,292.75,216.326z"/>
</g>
<g>
</g>
<g>
</g>
<g>
</g>
<g>
</g>
<g>
</g>
<g>
</g>
<g>
</g>
<g>
</g>
<g>
</g>
<g>
</g>
<g>
</g>
<g>
</g>
<g>
</g>
<g>
</g>
<g>
</g>
</svg>
